# xmcd CD database file generated by OrangeCD 5.1
#
# Track frame offsets:
#	150
#	25811
#	40127
#	61235
#	82672
#	94386
#	108463
#	126160
#	144915
#	162959
#	181616
#	195429
#	217028
#	232001
#	271918
#	290061
#
# Disc length: 4071 seconds
#
# Revision: 4
# Processed by: cddbd v1.5PL3 Copyright (c) Steve Scherf et al.
# Submitted via: OrangeCD 5.1
#
DISCID=db0fe510
DTITLE=Alexis Korner - Musically Rich and Famous [CD1]
DYEAR=2000
DGENRE=British Blues
TTITLE0=The Love You Save
TTITLE1=Corina Corina
TTITLE2=Operator
TTITLE3=Steal Away
TTITLE4=I See It
TTITLE5=Funky
TTITLE6=You Don't Miss Your Water
TTITLE7=Mighty Mighty Spade And Whitey
TTITLE8=Evil Hearted Woman
TTITLE9=Lo And Behold
TTITLE10=One Scotch, One Bourbon, One Beer
TTITLE11=I Don't Know
TTITLE12=Oo-Whee Baby
TTITLE13=Rock Me
TTITLE14=Captain America
TTITLE15=Vicksburg Blues
EXTD=
EXTT0=(Joe Tex) Sony - ATV Music Publishing (UK]\n\nAlexis Korner - Vocal/Elect
EXTT0=ric Guitar\nVictor Brox - Piano/Backing Vocal\n13th November 1967\nPinna 
EXTT0=Studios, London\n\nProduced By - Mark Edwards
EXTT1=(Chatman, Williams, Parish) Lafleur Music Ltd.\n\nAlexis Korner - Vocal/A
EXTT1=coustic Guitar\nVictor Brox - Cornet/Backing Vocal\n\n13th November1967\n
EXTT1=Pinna Studios, London\n\nProduced By - Mark Edwards
EXTT2=(Alexis Korner/Robert Plant/Steve Miller]\nAlexis Korner Music\n\nAlexis 
EXTT2=Korner - Acoustic Guitar/Backing Vocal\nRobert Plant - Vocal/Harmonica\nS
EXTT2=teve Miller - Piano\n\nSeptember 1968\nDe Lane Lea Studios\nLondon\n\nPro
EXTT2=duced By - Ian Samwell
EXTT3=
EXTT4=
EXTT5=
EXTT6=
EXTT7=
EXTT8=
EXTT9=
EXTT10=
EXTT11=
EXTT12=
EXTT13=
EXTT14=
EXTT15=
PLAYORDER=
